<svg width="50" height="50" viewBox="0 0 50 50" fill="none" xmlns="http://www.w3.org/2000/svg">
<path fill-rule="evenodd" clip-rule="evenodd" d="M10.4166 41.6667C8.75902 41.6667 7.16931 41.0082 5.99721 39.8361C4.82511 38.664 4.16663 37.0743 4.16663 35.4167V14.5834C4.16663 12.9258 4.82511 11.3361 5.99721 10.164C7.16931 8.99185 8.75902 8.33337 10.4166 8.33337H39.5833C41.2409 8.33337 42.8306 8.99185 44.0027 10.164C45.1748 11.3361 45.8333 12.9258 45.8333 14.5834V35.4167C45.8333 37.0743 45.1748 38.664 44.0027 39.8361C42.8306 41.0082 41.2409 41.6667 39.5833 41.6667H10.4166ZM15.8854 17.125C15.6732 16.9438 15.4267 16.8071 15.1606 16.723C14.8945 16.6388 14.6143 16.609 14.3364 16.6353C14.0586 16.6615 13.7889 16.7434 13.5433 16.8759C13.2977 17.0084 13.0812 17.1889 12.9067 17.4066C12.7322 17.6244 12.6033 17.875 12.5275 18.1436C12.4517 18.4122 12.4306 18.6932 12.4656 18.9701C12.5005 19.247 12.5907 19.514 12.7308 19.7554C12.8709 19.9967 13.0581 20.2074 13.2812 20.375L21.0937 26.6271C22.2022 27.5146 23.5799 27.9982 25 27.9982C26.42 27.9982 27.7977 27.5146 28.9062 26.6271L36.7187 20.3771C36.9324 20.2061 37.1103 19.9947 37.2423 19.755C37.3742 19.5152 37.4577 19.2518 37.4879 18.9798C37.518 18.7079 37.4944 18.4326 37.4181 18.1697C37.3419 17.9069 37.2147 17.6616 37.0437 17.448C36.8727 17.2343 36.6613 17.0564 36.4216 16.9244C36.1818 16.7924 35.9184 16.709 35.6464 16.6788C35.3744 16.6486 35.0992 16.6723 34.8363 16.7485C34.5735 16.8247 34.3282 16.952 34.1145 17.123L26.302 23.373C25.9325 23.6688 25.4733 23.83 25 23.83C24.5266 23.83 24.0674 23.6688 23.6979 23.373L15.8854 17.125Z" fill="black"/>
</svg>
