<?xml version="1.0" encoding="UTF-8"?>
<svg version="1.1" xmlns="http://www.w3.org/2000/svg" width="512" height="512">
<path d="M0 0 C168.96 0 337.92 0 512 0 C512 168.96 512 337.92 512 512 C343.04 512 174.08 512 0 512 C0 343.04 0 174.08 0 0 Z " fill="#FEFEFE" transform="translate(0,0)"/>
<path d="M0 0 C1.90072266 0.02126953 1.90072266 0.02126953 3.83984375 0.04296875 C5.74443359 0.05263672 5.74443359 0.05263672 7.6875 0.0625 C10.77734375 0.23046875 10.77734375 0.23046875 11.77734375 1.23046875 C11.91260283 3.62993821 11.98783604 6.00474018 12.0234375 8.40625 C12.05638631 9.88867755 12.08959778 11.37109928 12.12304688 12.85351562 C12.17040525 15.19714195 12.21480644 17.54074643 12.25415039 19.88452148 C12.29394798 22.14202206 12.34548562 24.399025 12.3984375 26.65625 C12.40685165 27.35430252 12.41526581 28.05235504 12.42393494 28.77156067 C12.51600578 32.40723081 12.79607247 35.13247193 14.77734375 38.23046875 C17.08734375 38.23046875 19.39734375 38.23046875 21.77734375 38.23046875 C24.13848429 34.53849281 24.10508621 30.90088516 24.15625 26.65625 C24.17324448 25.93181198 24.19023895 25.20737396 24.20774841 24.46098328 C24.26073531 22.15506611 24.3011306 19.84916625 24.33984375 17.54296875 C24.38374747 15.22614777 24.43037815 12.90946687 24.48265076 10.59281921 C24.51465627 9.15283255 24.5415313 7.71272128 24.56288147 6.27253723 C24.66556632 1.34224618 24.66556632 1.34224618 25.77734375 0.23046875 C28.1089443 0.13137573 30.44364317 0.10076371 32.77734375 0.10546875 C34.05609375 0.10289062 35.33484375 0.1003125 36.65234375 0.09765625 C39.77734375 0.23046875 39.77734375 0.23046875 40.77734375 1.23046875 C40.915792 3.86423186 40.99053341 6.46980821 41.015625 9.10546875 C41.02369675 9.9039624 41.03176849 10.70245605 41.04008484 11.52514648 C41.05394994 13.22328508 41.06466118 14.92145184 41.07250977 16.61962891 C41.08959028 19.19229049 41.13343531 21.763622 41.17773438 24.3359375 C41.27232487 34.25952228 41.30012159 42.74506726 34.02734375 50.29296875 C33.28484375 50.93234375 32.54234375 51.57171875 31.77734375 52.23046875 C32.34582031 52.57078125 32.91429687 52.91109375 33.5 53.26171875 C43.10719445 59.29227821 50.45180827 67.33082334 53.38671875 78.5625 C55.47540082 92.82819857 53.02084079 104.35842387 44.77734375 116.23046875 C47.56743199 118.21186805 50.35967785 120.19020456 53.15234375 122.16796875 C53.94640625 122.73193359 54.74046875 123.29589844 55.55859375 123.87695312 C56.31914062 124.41513672 57.0796875 124.95332031 57.86328125 125.5078125 C58.91588135 126.25405884 58.91588135 126.25405884 59.98974609 127.01538086 C63.11202199 129.13769268 65.01189879 129.36237445 68.76333618 129.38868713 C69.81785477 129.39847595 70.87237335 129.40826477 71.95884705 129.41835022 C73.70132469 129.42698341 73.70132469 129.42698341 75.47900391 129.43579102 C76.69849228 129.44569061 77.91798065 129.45559021 79.17442322 129.46578979 C82.52336636 129.49201225 85.87228521 129.51385994 89.22126818 129.53379178 C92.71934628 129.55563575 96.2173807 129.5830322 99.71542358 129.60984802 C106.34166058 129.65979645 112.96792179 129.70472728 119.59420621 129.74787039 C127.1370641 129.79722441 134.67987816 129.85214933 142.22269368 129.90754998 C157.74086989 130.02140301 173.25908638 130.1282348 188.77734375 130.23046875 C189.10734375 131.88046875 189.43734375 133.53046875 189.77734375 135.23046875 C173.52177859 135.37091281 157.26641159 135.47657309 141.01038551 135.54134178 C133.46163216 135.57222053 125.91325677 135.61428518 118.36474609 135.68310547 C111.78195505 135.74309238 105.19943785 135.78166136 98.61638105 135.79499972 C95.13368581 135.80279132 91.65177369 135.82097455 88.1693306 135.86484909 C84.27241086 135.91354284 80.37624249 135.91439627 76.47900391 135.91162109 C75.33676361 135.93319275 74.19452332 135.9547644 73.01766968 135.97698975 C65.07421039 135.91598248 60.14791844 133.91259841 53.77734375 129.23046875 C53.15404993 128.79251165 52.53075611 128.35455456 51.8885746 127.90332603 C50.28525762 126.75424206 48.7171993 125.5564044 47.15234375 124.35546875 C46.12882812 123.57429688 45.1053125 122.793125 44.05078125 121.98828125 C43.30054688 121.40820312 42.5503125 120.828125 41.77734375 120.23046875 C39.50968192 121.35618154 37.25495722 122.50160873 35.0078125 123.66796875 C23.49508704 129.57950942 13.5088739 132.48559968 0.71484375 128.73046875 C-10.22664392 124.65788356 -18.40296151 117.68700051 -23.69140625 107.36328125 C-28.36931469 96.73403374 -29.02320988 86.3670967 -25.16015625 75.35546875 C-19.6239673 62.75639807 -10.53369607 55.12385933 1.77734375 49.23046875 C0.99359375 48.38484375 0.20984375 47.53921875 -0.59765625 46.66796875 C-5.29915661 41.59529731 -5.52633711 34.77201405 -5.48828125 28.1796875 C-5.4901947 27.43966995 -5.49210815 26.6996524 -5.49407959 25.93721008 C-5.49543132 24.38676611 -5.49180619 22.83631043 -5.48339844 21.28588867 C-5.4726071 18.90713465 -5.48336671 16.52912266 -5.49609375 14.15039062 C-5.49477347 12.63932125 -5.49221381 11.12825234 -5.48828125 9.6171875 C-5.49232971 8.90576096 -5.49637817 8.19433441 -5.50054932 7.46134949 C-5.4535191 2.55296525 -5.40070075 0.38623193 0 0 Z " fill="#265D92" transform="translate(173.22265625,192.76953125)"/>
<path d="M0 0 C1.90072266 0.02126953 1.90072266 0.02126953 3.83984375 0.04296875 C5.74443359 0.05263672 5.74443359 0.05263672 7.6875 0.0625 C10.77734375 0.23046875 10.77734375 0.23046875 11.77734375 1.23046875 C11.91260283 3.62993821 11.98783604 6.00474018 12.0234375 8.40625 C12.05638631 9.88867755 12.08959778 11.37109928 12.12304688 12.85351562 C12.17040525 15.19714195 12.21480644 17.54074643 12.25415039 19.88452148 C12.29394798 22.14202206 12.34548562 24.399025 12.3984375 26.65625 C12.40685165 27.35430252 12.41526581 28.05235504 12.42393494 28.77156067 C12.51600578 32.40723081 12.79607247 35.13247193 14.77734375 38.23046875 C17.08734375 38.23046875 19.39734375 38.23046875 21.77734375 38.23046875 C24.13848429 34.53849281 24.10508621 30.90088516 24.15625 26.65625 C24.17324448 25.93181198 24.19023895 25.20737396 24.20774841 24.46098328 C24.26073531 22.15506611 24.3011306 19.84916625 24.33984375 17.54296875 C24.38374747 15.22614777 24.43037815 12.90946687 24.48265076 10.59281921 C24.51465627 9.15283255 24.5415313 7.71272128 24.56288147 6.27253723 C24.66556632 1.34224618 24.66556632 1.34224618 25.77734375 0.23046875 C28.1089443 0.13137573 30.44364317 0.10076371 32.77734375 0.10546875 C34.05609375 0.10289062 35.33484375 0.1003125 36.65234375 0.09765625 C39.77734375 0.23046875 39.77734375 0.23046875 40.77734375 1.23046875 C40.915792 3.86423186 40.99053341 6.46980821 41.015625 9.10546875 C41.02369675 9.9039624 41.03176849 10.70245605 41.04008484 11.52514648 C41.05394994 13.22328508 41.06466118 14.92145184 41.07250977 16.61962891 C41.08959028 19.19229049 41.13343531 21.763622 41.17773438 24.3359375 C41.27232487 34.25952228 41.30012159 42.74506726 34.02734375 50.29296875 C33.28484375 50.93234375 32.54234375 51.57171875 31.77734375 52.23046875 C32.34582031 52.57078125 32.91429687 52.91109375 33.5 53.26171875 C43.10719445 59.29227821 50.45180827 67.33082334 53.38671875 78.5625 C55.47540082 92.82819857 53.02084079 104.35842387 44.77734375 116.23046875 C47.56743199 118.21186805 50.35967785 120.19020456 53.15234375 122.16796875 C53.94640625 122.73193359 54.74046875 123.29589844 55.55859375 123.87695312 C56.31914062 124.41513672 57.0796875 124.95332031 57.86328125 125.5078125 C58.91588135 126.25405884 58.91588135 126.25405884 59.98974609 127.01538086 C63.11202199 129.13769268 65.01189879 129.36237445 68.76333618 129.38868713 C69.81785477 129.39847595 70.87237335 129.40826477 71.95884705 129.41835022 C73.70132469 129.42698341 73.70132469 129.42698341 75.47900391 129.43579102 C76.69849228 129.44569061 77.91798065 129.45559021 79.17442322 129.46578979 C82.52336636 129.49201225 85.87228521 129.51385994 89.22126818 129.53379178 C92.71934628 129.55563575 96.2173807 129.5830322 99.71542358 129.60984802 C106.34166058 129.65979645 112.96792179 129.70472728 119.59420621 129.74787039 C127.1370641 129.79722441 134.67987816 129.85214933 142.22269368 129.90754998 C157.74086989 130.02140301 173.25908638 130.1282348 188.77734375 130.23046875 C189.10734375 131.88046875 189.43734375 133.53046875 189.77734375 135.23046875 C173.52177859 135.37091281 157.26641159 135.47657309 141.01038551 135.54134178 C133.46163216 135.57222053 125.91325677 135.61428518 118.36474609 135.68310547 C111.78195505 135.74309238 105.19943785 135.78166136 98.61638105 135.79499972 C95.13368581 135.80279132 91.65177369 135.82097455 88.1693306 135.86484909 C84.27241086 135.91354284 80.37624249 135.91439627 76.47900391 135.91162109 C75.33676361 135.93319275 74.19452332 135.9547644 73.01766968 135.97698975 C65.07421039 135.91598248 60.14791844 133.91259841 53.77734375 129.23046875 C53.15404993 128.79251165 52.53075611 128.35455456 51.8885746 127.90332603 C50.28525762 126.75424206 48.7171993 125.5564044 47.15234375 124.35546875 C46.12882812 123.57429688 45.1053125 122.793125 44.05078125 121.98828125 C43.30054688 121.40820312 42.5503125 120.828125 41.77734375 120.23046875 C39.50968192 121.35618154 37.25495722 122.50160873 35.0078125 123.66796875 C23.49508704 129.57950942 13.5088739 132.48559968 0.71484375 128.73046875 C-10.22664392 124.65788356 -18.40296151 117.68700051 -23.69140625 107.36328125 C-28.36931469 96.73403374 -29.02320988 86.3670967 -25.16015625 75.35546875 C-19.6239673 62.75639807 -10.53369607 55.12385933 1.77734375 49.23046875 C0.99359375 48.38484375 0.20984375 47.53921875 -0.59765625 46.66796875 C-5.29915661 41.59529731 -5.52633711 34.77201405 -5.48828125 28.1796875 C-5.4901947 27.43966995 -5.49210815 26.6996524 -5.49407959 25.93721008 C-5.49543132 24.38676611 -5.49180619 22.83631043 -5.48339844 21.28588867 C-5.4726071 18.90713465 -5.48336671 16.52912266 -5.49609375 14.15039062 C-5.49477347 12.63932125 -5.49221381 11.12825234 -5.48828125 9.6171875 C-5.49232971 8.90576096 -5.49637817 8.19433441 -5.50054932 7.46134949 C-5.4535191 2.55296525 -5.40070075 0.38623193 0 0 Z M-14.22265625 65.23046875 C-21.09939758 74.2209032 -24.431615 83.9250707 -23.22265625 95.23046875 C-21.06040875 105.07026174 -16.00940987 112.90290235 -8.22265625 119.23046875 C1.17930931 124.87164809 9.95971556 126.3998726 20.77734375 125.23046875 C31.73449081 122.45697977 39.64849385 116.05602241 45.5234375 106.53125 C50.39151977 97.59884983 51.55149688 87.8618589 48.8984375 77.9453125 C44.7346863 67.07558578 38.21578114 60.29641827 27.77734375 55.23046875 C12.58925971 49.09641545 -3.02056306 53.98968094 -14.22265625 65.23046875 Z " fill="#275C90" transform="translate(173.22265625,192.76953125)"/>
<path d="M0 0 C1.37961914 -0.03673828 1.37961914 -0.03673828 2.78710938 -0.07421875 C3.67076172 -0.07808594 4.55441406 -0.08195313 5.46484375 -0.0859375 C6.27429443 -0.09415527 7.08374512 -0.10237305 7.91772461 -0.11083984 C10.0625 0.375 10.0625 0.375 11.76318359 2.07861328 C13.18923959 4.59899711 13.84076633 6.74964349 14.44921875 9.578125 C14.66513672 10.5578125 14.88105469 11.5375 15.10351562 12.546875 C15.42352539 14.07054687 15.42352539 14.07054687 15.75 15.625 C15.97494141 16.65625 16.19988281 17.6875 16.43164062 18.75 C16.98429548 21.28986061 17.52754874 23.83136231 18.0625 26.375 C19.98825331 23.48637003 20.46885262 22.11466357 21.0625 18.8125 C21.2275 17.93335938 21.3925 17.05421875 21.5625 16.1484375 C21.7275 15.23320312 21.8925 14.31796875 22.0625 13.375 C22.38946948 11.56134118 22.72255461 9.74877151 23.0625 7.9375 C23.206875 7.13441406 23.35125 6.33132812 23.5 5.50390625 C24.0625 3.375 24.0625 3.375 26.0625 0.375 C28.20141602 0.01855469 28.20141602 0.01855469 30.81640625 0.046875 C32.22116211 0.05460938 32.22116211 0.05460938 33.65429688 0.0625 C34.63462891 0.083125 35.61496094 0.10375 36.625 0.125 C38.10129883 0.13273438 38.10129883 0.13273438 39.60742188 0.140625 C46.90863458 0.22113458 46.90863458 0.22113458 48.0625 1.375 C48.16104422 2.9656331 48.19048694 4.56061477 48.19189453 6.15429688 C48.19504669 7.172052 48.19819885 8.18980713 48.20144653 9.23840332 C48.1994223 10.34566772 48.19739807 11.45293213 48.1953125 12.59375 C48.19626923 13.72196167 48.19722595 14.85017334 48.19821167 16.01257324 C48.19889368 18.40340226 48.19703797 20.79423311 48.19287109 23.18505859 C48.18752316 26.85909151 48.19281543 30.53300217 48.19921875 34.20703125 C48.19855797 36.52343777 48.19727682 38.83984422 48.1953125 41.15625 C48.19733673 42.2635144 48.19936096 43.37077881 48.20144653 44.51159668 C48.19671829 46.03822937 48.19671829 46.03822937 48.19189453 47.59570312 C48.19109894 48.49647583 48.19030334 49.39724854 48.18948364 50.32531738 C48.0625 52.375 48.0625 52.375 47.0625 53.375 C44.89769203 53.4739294 42.72956215 53.504711 40.5625 53.5 C39.3765625 53.50257813 38.190625 53.50515625 36.96875 53.5078125 C34.0625 53.375 34.0625 53.375 33.0625 52.375 C32.9040735 50.3041528 32.81125578 48.22821971 32.74609375 46.15234375 C32.70419922 44.89228516 32.66230469 43.63222656 32.61914062 42.33398438 C32.57932404 40.99349264 32.53961186 39.6529978 32.5 38.3125 C32.45681958 36.96808477 32.41320544 35.6236834 32.36914062 34.27929688 C32.26264642 30.9779766 32.1606354 27.67657764 32.0625 24.375 C31.90430786 25.21309204 31.90430786 25.21309204 31.74291992 26.06811523 C31.25164632 28.65083359 30.7508751 31.23162721 30.25 33.8125 C30.08435547 34.69099609 29.91871094 35.56949219 29.74804688 36.47460938 C28.61114605 42.28781925 27.08209066 47.80644473 25.0625 53.375 C23.10446493 53.42889087 21.14601091 53.46774217 19.1875 53.5 C18.09695312 53.52320313 17.00640625 53.54640625 15.8828125 53.5703125 C13.0625 53.375 13.0625 53.375 11.0625 51.375 C10.4883662 49.58123734 9.99786624 47.76020838 9.5546875 45.9296875 C9.15830078 44.31513672 9.15830078 44.31513672 8.75390625 42.66796875 C8.48449219 41.54003906 8.21507813 40.41210938 7.9375 39.25 C7.66035156 38.11433594 7.38320312 36.97867188 7.09765625 35.80859375 C6.41293342 32.99886903 5.73484288 30.18770819 5.0625 27.375 C5.03744385 28.1270874 5.0123877 28.8791748 4.98657227 29.65405273 C4.87099486 33.04039196 4.74809655 36.42642613 4.625 39.8125 C4.58568359 40.99650391 4.54636719 42.18050781 4.50585938 43.40039062 C4.46396484 44.52509766 4.42207031 45.64980469 4.37890625 46.80859375 C4.34224854 47.85072021 4.30559082 48.89284668 4.26782227 49.96655273 C4.0625 52.375 4.0625 52.375 3.0625 53.375 C0.73089945 53.47409302 -1.60379942 53.50470504 -3.9375 53.5 C-5.21625 53.50257813 -6.495 53.50515625 -7.8125 53.5078125 C-10.9375 53.375 -10.9375 53.375 -11.9375 52.375 C-12.04117027 50.82049012 -12.07601522 49.26131745 -12.08276367 47.70336914 C-12.08914352 46.70886246 -12.09552338 45.71435577 -12.10209656 44.68971252 C-12.10320938 43.60745895 -12.1043222 42.52520538 -12.10546875 41.41015625 C-12.10879715 40.3065123 -12.11212555 39.20286835 -12.11555481 38.06578064 C-12.12062886 35.72623106 -12.12296299 33.38667422 -12.12280273 31.04711914 C-12.12498848 27.45642234 -12.14313734 23.86603296 -12.16210938 20.27539062 C-12.16504327 18.00781356 -12.16702809 15.74023502 -12.16796875 13.47265625 C-12.17515427 12.39242691 -12.18233978 11.31219757 -12.18974304 10.19923401 C-12.18666641 9.20157516 -12.18358978 8.20391632 -12.18041992 7.17602539 C-12.18184494 6.29523819 -12.18326996 5.41445099 -12.18473816 4.50697327 C-11.47793118 -1.58793375 -4.6345744 0.00646835 0 0 Z " fill="#245C91" transform="translate(114.9375,192.625)"/>
<path d="M0 0 C1.25554687 -0.02900391 2.51109375 -0.05800781 3.8046875 -0.08789062 C12.82395917 -0.14934269 19.33882065 0.87500402 26.375 6.6875 C32.37700763 14.10174472 33.31281207 22.05805396 32.5 31.3125 C31.33352933 37.41890369 30.00936828 43.52225079 25.375 47.9375 C17.31727158 53.35249 8.43635804 53.76955205 -1 53.625 C-2.62421875 53.62983398 -2.62421875 53.62983398 -4.28125 53.63476562 C-12.23239852 53.58010148 -12.23239852 53.58010148 -14.5 51.3125 C-14.74723816 49.18052673 -14.74723816 49.18052673 -14.74291992 46.51147461 C-14.74599655 45.51381577 -14.74907318 44.51615692 -14.75224304 43.48826599 C-14.74505753 42.40803665 -14.73787201 41.32780731 -14.73046875 40.21484375 C-14.73001053 39.11024307 -14.72955231 38.0056424 -14.7290802 36.86756897 C-14.72605547 34.52978442 -14.71816264 32.19200192 -14.70581055 29.85424805 C-14.68755834 26.26148397 -14.68530078 22.66897746 -14.68554688 19.07617188 C-14.68063174 16.80989359 -14.67480344 14.54361706 -14.66796875 12.27734375 C-14.66685593 11.19509018 -14.6657431 10.11283661 -14.66459656 8.99778748 C-14.65821671 8.00328079 -14.65183685 7.00877411 -14.64526367 5.98413086 C-14.64145187 5.10413925 -14.63764008 4.22414764 -14.63371277 3.31748962 C-14.26389358 -2.22785697 -4.13081171 0.03104317 0 0 Z " fill="#255D92" transform="translate(244.5,255.6875)"/>
<path d="M0 0 C1.07523674 -0.01210762 1.07523674 -0.01210762 2.17219543 -0.02445984 C3.69460622 -0.03831901 5.21704833 -0.04903294 6.73950195 -0.05688477 C9.0554629 -0.07402215 11.36996791 -0.11787838 13.68554688 -0.16210938 C15.16535409 -0.17224291 16.64517345 -0.18075695 18.125 -0.1875 C19.15659492 -0.21376213 19.15659492 -0.21376213 20.20903015 -0.24055481 C26.10392621 -0.21430547 29.37126302 2.06305001 33.70703125 5.80078125 C36.96488732 9.74450176 36.32885832 15.43072991 35.89453125 20.23828125 C34.53620933 23.63408605 32.91868278 26.20205395 30.89453125 29.23828125 C31.53390625 29.85703125 32.17328125 30.47578125 32.83203125 31.11328125 C36.48073598 34.87255279 36.07766947 38.24840892 36.08203125 43.23828125 C36.09427734 43.975625 36.10652344 44.71296875 36.11914062 45.47265625 C36.1244052 47.39598183 36.01656572 49.31882388 35.89453125 51.23828125 C33.89453125 53.23828125 33.89453125 53.23828125 30.890625 53.46875 C29.71628906 53.45457031 28.54195313 53.44039063 27.33203125 53.42578125 C25.56666016 53.41611328 25.56666016 53.41611328 23.765625 53.40625 C20.89453125 53.23828125 20.89453125 53.23828125 19.89453125 52.23828125 C19.5692642 48.8771884 19.38093665 45.51494135 19.17578125 42.14453125 C19.21593235 39.34777993 19.21593235 39.34777993 17.89453125 38.23828125 C16.21269177 38.00541117 14.52328965 37.82563959 12.83203125 37.67578125 C11.91292969 37.59199219 10.99382812 37.50820313 10.046875 37.421875 C8.98146484 37.33099609 8.98146484 37.33099609 7.89453125 37.23828125 C7.91773438 38.22570312 7.9409375 39.213125 7.96484375 40.23046875 C7.99191406 42.15246094 7.99191406 42.15246094 8.01953125 44.11328125 C8.04273438 45.38945312 8.0659375 46.665625 8.08984375 47.98046875 C7.89453125 51.23828125 7.89453125 51.23828125 5.89453125 53.23828125 C2.890625 53.46875 2.890625 53.46875 -0.66796875 53.42578125 C-2.43333984 53.41611328 -2.43333984 53.41611328 -4.234375 53.40625 C-7.10546875 53.23828125 -7.10546875 53.23828125 -8.10546875 52.23828125 C-8.20401297 50.64764815 -8.23345569 49.05266648 -8.23486328 47.45898438 C-8.23801544 46.44122925 -8.2411676 45.42347412 -8.24441528 44.37487793 C-8.24239105 43.26761353 -8.24036682 42.16034912 -8.23828125 41.01953125 C-8.23923798 39.89131958 -8.2401947 38.76310791 -8.24118042 37.60070801 C-8.24186243 35.20987899 -8.24000672 32.81904814 -8.23583984 30.42822266 C-8.23049191 26.75418974 -8.23578418 23.08027908 -8.2421875 19.40625 C-8.24152672 17.08984348 -8.24024557 14.77343703 -8.23828125 12.45703125 C-8.2413176 10.79613464 -8.2413176 10.79613464 -8.24441528 9.10168457 C-8.24126312 8.08392944 -8.23811096 7.06617432 -8.23486328 6.01757812 C-8.23406769 5.11680542 -8.23327209 4.21603271 -8.23245239 3.28796387 C-7.94834936 -1.2978318 -3.61772323 0.03829453 0 0 Z " fill="#265D92" transform="translate(334.10546875,255.76171875)"/>
<path d="M0 0 C1.27617187 0.02320313 2.55234375 0.04640625 3.8671875 0.0703125 C5.78917969 0.09738281 5.78917969 0.09738281 7.75 0.125 C9.23113281 0.15980469 9.23113281 0.15980469 10.7421875 0.1953125 C12.2229723 3.1568821 12.09532787 6.03037545 12.3046875 9.3203125 C12.43037109 11.24230469 12.43037109 11.24230469 12.55859375 13.203125 C12.61917969 14.19054687 12.67976563 15.17796875 12.7421875 16.1953125 C13.44085938 15.20789063 14.13953125 14.22046875 14.859375 13.203125 C15.77854548 11.9087829 16.69782183 10.61451597 17.6171875 9.3203125 C18.07738281 8.66933594 18.53757813 8.01835937 19.01171875 7.34765625 C19.45644531 6.72246094 19.90117187 6.09726563 20.359375 5.453125 C20.76784668 4.8770752 21.17631836 4.30102539 21.59716797 3.70751953 C22.7421875 2.1953125 22.7421875 2.1953125 24.7421875 0.1953125 C27.6515433 0.05013506 30.4621335 0.00900454 33.3671875 0.0703125 C34.16898437 0.07933594 34.97078125 0.08835938 35.796875 0.09765625 C37.77877273 0.12125027 39.76051731 0.15712185 41.7421875 0.1953125 C41.2312306 4.84502033 39.34815988 7.42942055 36.4921875 11.0703125 C36.08830811 11.5969751 35.68442871 12.1236377 35.26831055 12.66625977 C33.53556517 14.92574306 31.77397428 17.15667934 29.96484375 19.35546875 C28.37863752 21.27203032 28.37863752 21.27203032 26.7421875 24.1953125 C27.78328316 27.88050183 29.55986881 30.50669229 31.96484375 33.4453125 C32.58552734 34.21875 33.20621094 34.9921875 33.84570312 35.7890625 C35.15325115 37.39514343 36.46315537 38.99930895 37.77539062 40.6015625 C38.39478516 41.375 39.01417969 42.1484375 39.65234375 42.9453125 C40.22090088 43.64140625 40.78945801 44.3375 41.37524414 45.0546875 C42.9158711 47.46729996 43.44056965 49.36052655 43.7421875 52.1953125 C41.28374548 54.65375452 35.96412071 54.21001907 32.61523438 54.36474609 C29.0428165 54.24272092 26.63455181 53.8967255 23.77978516 51.65283203 C19.29363122 46.7819767 15.69951291 41.10996331 12.7421875 35.1953125 C12.69320312 36.32710937 12.64421875 37.45890625 12.59375 38.625 C12.51872236 40.10679589 12.44317453 41.5885655 12.3671875 43.0703125 C12.32078125 44.18986328 12.32078125 44.18986328 12.2734375 45.33203125 C11.96875 50.96875 11.96875 50.96875 9.7421875 53.1953125 C6.7734375 53.4609375 6.7734375 53.4609375 3.2421875 53.4453125 C2.076875 53.45046875 0.9115625 53.455625 -0.2890625 53.4609375 C-3.2578125 53.1953125 -3.2578125 53.1953125 -5.2578125 51.1953125 C-5.51177979 49.10803223 -5.51177979 49.10803223 -5.51660156 46.50195312 C-5.52290588 45.52754272 -5.52921021 44.55313232 -5.53570557 43.54919434 C-5.5316571 42.49397583 -5.52760864 41.43875732 -5.5234375 40.3515625 C-5.52535095 39.27152954 -5.5272644 38.19149658 -5.52923584 37.07873535 C-5.53059857 34.79223396 -5.52689602 32.50572486 -5.51855469 30.21923828 C-5.50785662 26.70978495 -5.51844723 23.20084357 -5.53125 19.69140625 C-5.52992842 17.4739572 -5.52736606 15.25650847 -5.5234375 13.0390625 C-5.52748596 11.98384399 -5.53153442 10.92862549 -5.53570557 9.84143066 C-5.52940125 8.86702026 -5.52309692 7.89260986 -5.51660156 6.88867188 C-5.51501038 6.02866577 -5.51341919 5.16865967 -5.51177979 4.28259277 C-5.05402388 0.52043549 -3.59286289 0.21539945 0 0 Z " fill="#275E92" transform="translate(224.2578125,192.8046875)"/>
<path d="M0 0 C0.82290527 0.00202423 1.64581055 0.00404846 2.49365234 0.00613403 C3.33331543 0.00517731 4.17297852 0.00422058 5.03808594 0.00323486 C6.81689529 0.00255306 8.59570712 0.00440737 10.37451172 0.00857544 C13.10699011 0.01392371 15.83930411 0.00863048 18.57177734 0.00222778 C20.29573604 0.00288856 22.01969464 0.00416973 23.74365234 0.00613403 C24.56655762 0.0041098 25.38946289 0.00208557 26.23730469 0 C32.0037018 0.02399599 32.0037018 0.02399599 33.11865234 1.13894653 C33.24380163 3.11514101 33.29437994 5.09632827 33.30615234 7.07644653 C33.32033203 8.15796997 33.33451172 9.23949341 33.34912109 10.35379028 C33.11865234 13.13894653 33.11865234 13.13894653 31.11865234 15.13894653 C28.87207031 15.36599731 28.87207031 15.36599731 26.11083984 15.33425903 C25.12470703 15.32781372 24.13857422 15.32136841 23.12255859 15.31472778 C21.57375 15.28959106 21.57375 15.28959106 19.99365234 15.26394653 C18.95337891 15.2549231 17.91310547 15.24589966 16.84130859 15.23660278 C14.26686142 15.212984 11.69287022 15.18004802 9.11865234 15.13894653 C9.11865234 16.78894653 9.11865234 18.43894653 9.11865234 20.13894653 C16.04865234 20.13894653 22.97865234 20.13894653 30.11865234 20.13894653 C30.21630859 29.41629028 30.21630859 29.41629028 30.11865234 32.13894653 C29.11865234 33.13894653 29.11865234 33.13894653 27.16918945 33.25247192 C26.33653564 33.24723511 25.50388184 33.24199829 24.64599609 33.23660278 C23.746875 33.23338013 22.84775391 33.23015747 21.92138672 33.22683716 C20.5030957 33.2142688 20.5030957 33.2142688 19.05615234 33.20144653 C18.10675781 33.19693481 17.15736328 33.1924231 16.17919922 33.18777466 C13.82562169 33.17594764 11.47216757 33.15946679 9.11865234 33.13894653 C9.11865234 34.78894653 9.11865234 36.43894653 9.11865234 38.13894653 C9.77462402 38.13370972 10.4305957 38.1284729 11.10644531 38.12307739 C14.06883797 38.10233382 17.03121537 38.08929477 19.99365234 38.07644653 C21.54246094 38.06387817 21.54246094 38.06387817 23.12255859 38.05105591 C24.10869141 38.04783325 25.09482422 38.0446106 26.11083984 38.04129028 C27.0220459 38.03605347 27.93325195 38.03081665 28.87207031 38.02542114 C31.11865234 38.13894653 31.11865234 38.13894653 33.11865234 39.13894653 C33.14551173 41.2847129 33.16498322 43.43057299 33.18115234 45.57644653 C33.19275391 46.77140747 33.20435547 47.96636841 33.21630859 49.19754028 C33.11865234 52.13894653 33.11865234 52.13894653 32.11865234 53.13894653 C29.31871637 53.23997908 26.54396591 53.27864741 23.74365234 53.27175903 C22.90398926 53.27271576 22.06432617 53.27367249 21.19921875 53.2746582 C19.4204094 53.27534001 17.64159757 53.2734857 15.86279297 53.26931763 C13.13031458 53.26396936 10.39800058 53.26926259 7.66552734 53.27566528 C5.94156865 53.2750045 4.21761005 53.27372334 2.49365234 53.27175903 C1.67074707 53.27378326 0.8478418 53.2758075 0 53.27789307 C-5.76639711 53.25389708 -5.76639711 53.25389708 -6.88134766 52.13894653 C-6.97989188 50.54831343 -7.00933459 48.95333176 -7.01074219 47.35964966 C-7.01389435 46.34189453 -7.01704651 45.3241394 -7.02029419 44.27554321 C-7.01826996 43.16827881 -7.01624573 42.0610144 -7.01416016 40.92019653 C-7.01511688 39.79198486 -7.01607361 38.66377319 -7.01705933 37.50137329 C-7.01774133 35.11054428 -7.01588563 32.71971342 -7.01171875 30.32888794 C-7.00637081 26.65485502 -7.01166308 22.98094437 -7.01806641 19.30691528 C-7.01740563 16.99050876 -7.01612447 14.67410232 -7.01416016 12.35769653 C-7.0171965 10.69679993 -7.0171965 10.69679993 -7.02029419 9.00234985 C-7.01714203 7.98459473 -7.01398987 6.9668396 -7.01074219 5.91824341 C-7.00994659 5.0174707 -7.009151 4.116698 -7.0083313 3.18862915 C-6.73891689 -1.16007286 -3.64394365 0.01516372 0 0 Z " fill="#275D92" transform="translate(287.88134765625,255.86105346679688)"/>
<path d="M0 0 C0.96744141 -0.00708984 1.93488281 -0.01417969 2.93164062 -0.02148438 C8.355559 0.02677773 12.2295161 0.44439725 16.9375 3.4375 C17.01836147 5.22843191 17.07662702 7.02039628 17.125 8.8125 C17.17720703 10.30910156 17.17720703 10.30910156 17.23046875 11.8359375 C17.13378906 12.69445312 17.03710938 13.55296875 16.9375 14.4375 C13.71301853 16.58715431 13.13819035 16.65902284 9.48828125 16.4140625 C8.64072266 16.3625 7.79316406 16.3109375 6.91992188 16.2578125 C6.03884766 16.19335938 5.15777344 16.12890625 4.25 16.0625 C3.35732422 16.00578125 2.46464844 15.9490625 1.54492188 15.890625 C-0.65837413 15.74923702 -2.86051539 15.59784022 -5.0625 15.4375 C-5.3925 16.4275 -5.7225 17.4175 -6.0625 18.4375 C-5.1446875 18.52386719 -4.226875 18.61023438 -3.28125 18.69921875 C5.53695779 19.70886649 11.77220623 21.01187537 17.9375 27.5625 C19.89153148 33.18034049 19.84875616 39.65319604 17.9375 45.3125 C15.28383012 49.45885919 12.45828688 51.51204672 7.9375 53.4375 C4.03649768 54.08298454 0.25702408 54.04904181 -3.6875 53.9375 C-4.698125 53.94007813 -5.70875 53.94265625 -6.75 53.9453125 C-12.42177362 53.87087978 -17.7791407 53.7208593 -22.0625 49.4375 C-22.16101171 47.60634117 -22.19222629 45.77130067 -22.1875 43.9375 C-22.19007813 42.9371875 -22.19265625 41.936875 -22.1953125 40.90625 C-22.0625 38.4375 -22.0625 38.4375 -21.0625 37.4375 C-17.30207988 37.31002813 -13.89269165 37.29311884 -10.1875 37.9375 C-5.8084526 38.63814758 -1.48744368 38.51620453 2.9375 38.4375 C2.9375 37.4475 2.9375 36.4575 2.9375 35.4375 C1.85210937 35.26734375 0.76671875 35.0971875 -0.3515625 34.921875 C-1.79700289 34.67783961 -3.24230856 34.43300538 -4.6875 34.1875 C-5.40035156 34.07792969 -6.11320312 33.96835937 -6.84765625 33.85546875 C-12.76409365 32.82416315 -17.0803976 30.95598529 -20.91015625 26.08984375 C-23.09687016 21.05669546 -22.6575359 15.80634662 -22.0625 10.4375 C-20.07173388 5.89855324 -17.54677217 3.66840173 -13.22729492 1.27319336 C-8.94945787 -0.37821481 -4.52420128 -0.09381287 0 0 Z " fill="#265C91" transform="translate(396.0625,255.5625)"/>
<path d="M0 0 C0 3.96 0 7.92 0 12 C-2.40124801 13.20062401 -3.79206136 13.07264003 -6.46484375 12.9921875 C-7.78838867 12.96705078 -7.78838867 12.96705078 -9.13867188 12.94140625 C-11.00085526 12.89722325 -12.86286895 12.84517031 -14.72460938 12.78515625 C-15.60826172 12.77097656 -16.49191406 12.75679688 -17.40234375 12.7421875 C-18.21179443 12.7201123 -19.02124512 12.69803711 -19.85522461 12.67529297 C-22.52985879 13.08021767 -23.34330345 13.90970128 -25 16 C-27.09413983 20.18827967 -26.42662305 25.56776549 -25.125 29.9375 C-24.05114265 32.13696824 -24.05114265 32.13696824 -22 34 C-19.43343678 34.2816485 -19.43343678 34.2816485 -16.5625 34.1875 C-15.11037109 34.17783203 -15.11037109 34.17783203 -13.62890625 34.16796875 C-10.89054038 34.105232 -10.89054038 34.105232 -8 33 C-4.375 32.875 -4.375 32.875 -1 33 C0.81039196 34.81039196 0.29880517 37.43090435 0.375 39.875 C0.42398438 40.94492187 0.47296875 42.01484375 0.5234375 43.1171875 C0 46 0 46 -2.2734375 47.8203125 C-7.46281919 50.06557506 -12.16559784 50.2440637 -17.75 50.3125 C-18.5234375 50.34150391 -19.296875 50.37050781 -20.09375 50.40039062 C-26.41927219 50.46937702 -31.7526099 48.99273444 -36.49438477 44.62280273 C-42.13133368 38.21741625 -43.56162685 32.5095387 -43.5 24.25 C-43.49033203 22.91364502 -43.49033203 22.91364502 -43.48046875 21.55029297 C-43.26072416 13.65249902 -41.92879881 7.75453757 -36.0625 2.1484375 C-25.46629629 -6.32049804 -11.85829337 -5.92914668 0 0 Z " fill="#255C91" transform="translate(144,259)"/>
<path d="M0 0 C9.53305322 5.60600443 15.66131018 13.84416094 18.6171875 24.5390625 C19.73938617 35.43482865 18.16357562 44.83319302 11.8046875 53.8515625 C5.47403766 61.54887868 -2.15429447 67.37712228 -12.32958984 68.81396484 C-22.24441765 69.66380723 -31.04011509 68.70139653 -39.0703125 62.4453125 C-47.65751379 54.95647417 -53.35508494 47.70051961 -54.65625 36.1015625 C-55.07743466 25.47474947 -51.31336124 15.67098365 -44.47265625 7.54296875 C-32.25037438 -4.17671462 -15.31044601 -7.42701852 0 0 Z M-28.3828125 1.5390625 C-27.8878125 8.4690625 -27.8878125 8.4690625 -27.3828125 15.5390625 C-28.4965625 15.6421875 -29.6103125 15.7453125 -30.7578125 15.8515625 C-37.02147939 16.66517048 -43.31418724 17.52089151 -47.9453125 22.0390625 C-51.30421426 27.88063078 -51.11785167 33.98136006 -50.3828125 40.5390625 C-47.36771555 50.09070551 -41.6384731 57.1874757 -32.81640625 61.9140625 C-25.72208267 64.88810208 -18.98395588 64.97410409 -11.3828125 64.5390625 C-11.1431182 58.90624651 -11.99751429 53.99367419 -13.3828125 48.5390625 C-12.65578125 48.42949219 -11.92875 48.31992187 -11.1796875 48.20703125 C-7.90597556 47.69079206 -4.64463959 47.12574859 -1.3828125 46.5390625 C0.26460937 46.24708984 0.26460937 46.24708984 1.9453125 45.94921875 C6.54474215 44.99194829 9.77450943 44.26682993 13.3671875 41.1640625 C16.12282841 33.17270386 15.63583316 25.80640016 12.0546875 18.1640625 C7.19362838 9.53482875 1.27508651 4.16660347 -8.11328125 0.9453125 C-11.5659451 0.32727973 -15.01289859 0.39530625 -18.5078125 0.4140625 C-19.60029297 0.40826172 -19.60029297 0.40826172 -20.71484375 0.40234375 C-24.67799736 0.33131528 -24.67799736 0.33131528 -28.3828125 1.5390625 Z " fill="#F2F4F6" transform="translate(204.3828125,249.4609375)"/>
<path d="M0 0 C0.85758911 -0.00315216 1.71517822 -0.00630432 2.59875488 -0.009552 C3.53102905 -0.00752777 4.46330322 -0.00550354 5.42382812 -0.00341797 C6.84979309 -0.00485306 6.84979309 -0.00485306 8.30456543 -0.00631714 C10.31876695 -0.00699904 12.33297065 -0.00514409 14.34716797 -0.00097656 C17.44178167 0.00437155 20.53625022 -0.00092124 23.63085938 -0.00732422 C25.58268261 -0.00666344 27.53450576 -0.00538228 29.48632812 -0.00341797 C30.88473938 -0.00645432 30.88473938 -0.00645432 32.31140137 -0.009552 C33.16899048 -0.00639984 34.02657959 -0.00324768 34.91015625 0 C35.66880981 0.00079559 36.42746338 0.00159119 37.20910645 0.00241089 C38.95507812 0.12939453 38.95507812 0.12939453 39.95507812 1.12939453 C40.08022741 3.10558901 40.13080572 5.08677626 40.14257812 7.06689453 C40.15675781 8.14841797 40.1709375 9.22994141 40.18554688 10.34423828 C39.95507812 13.12939453 39.95507812 13.12939453 37.95507812 15.12939453 C34.91601562 15.32470703 34.91601562 15.32470703 31.33007812 15.25439453 C30.1415625 15.23634766 28.95304687 15.21830078 27.72851562 15.19970703 C26.81328125 15.17650391 25.89804687 15.15330078 24.95507812 15.12939453 C24.96293335 16.80279907 24.96293335 16.80279907 24.97094727 18.51000977 C24.98899588 22.63418786 25.00050961 26.75836244 25.01000977 30.88256836 C25.01505031 32.67033474 25.02188267 34.45809698 25.03051758 36.24584961 C25.04259543 38.80990621 25.04830907 41.3739085 25.05273438 43.93798828 C25.05789566 44.74215683 25.06305695 45.54632538 25.06837463 46.37486267 C25.06857027 48.29341168 25.01709795 50.21184821 24.95507812 52.12939453 C23.95507812 53.12939453 23.95507812 53.12939453 20.83007812 53.26220703 C19.55132812 53.25962891 18.27257812 53.25705078 16.95507812 53.25439453 C15.67632812 53.25697266 14.39757812 53.25955078 13.08007812 53.26220703 C9.95507812 53.12939453 9.95507812 53.12939453 8.95507812 52.12939453 C8.86649167 49.39045368 8.83984334 46.67686183 8.85742188 43.93798828 C8.85883682 43.11814957 8.86025177 42.29831085 8.86170959 41.45362854 C8.86732523 38.82468071 8.87988033 36.1958168 8.89257812 33.56689453 C8.89759111 31.78890097 8.90215437 30.01090607 8.90625 28.23291016 C8.91729974 23.86503908 8.93457481 19.49723105 8.95507812 15.12939453 C8.11203125 15.15259766 7.26898438 15.17580078 6.40039062 15.19970703 C4.75683594 15.22677734 4.75683594 15.22677734 3.08007812 15.25439453 C1.98953125 15.27759766 0.89898437 15.30080078 -0.22460938 15.32470703 C-3.04492188 15.12939453 -3.04492188 15.12939453 -5.04492188 13.12939453 C-5.27539062 10.34423828 -5.27539062 10.34423828 -5.23242188 7.06689453 C-5.22597656 5.98279297 -5.21953125 4.89869141 -5.21289062 3.78173828 C-4.94913848 -0.38309208 -3.78615526 0.00397051 0 0 Z " fill="#235D91" transform="translate(274.044921875,192.87060546875)"/>
<path d="M0 0 C2.29141286 -0.05384521 4.58318188 -0.09272087 6.875 -0.125 C8.78925781 -0.15980469 8.78925781 -0.15980469 10.7421875 -0.1953125 C14 0 14 0 16 2 C16.24723816 4.13197327 16.24723816 4.13197327 16.24291992 6.80102539 C16.24599655 7.79868423 16.24907318 8.79634308 16.25224304 9.82423401 C16.24505753 10.90446335 16.23787201 11.98469269 16.23046875 13.09765625 C16.22978142 14.75455727 16.22978142 14.75455727 16.2290802 16.44493103 C16.22605547 18.78271558 16.21816264 21.12049808 16.20581055 23.45825195 C16.18755834 27.05101603 16.18530078 30.64352254 16.18554688 34.23632812 C16.18063174 36.50260641 16.17480344 38.76888294 16.16796875 41.03515625 C16.16685593 42.11740982 16.1657431 43.19966339 16.16459656 44.31471252 C16.15821671 45.30921921 16.15183685 46.30372589 16.14526367 47.32836914 C16.13954597 48.64835655 16.13954597 48.64835655 16.13371277 49.99501038 C16 52 16 52 15 53 C12.48863896 53.09975032 10.01096585 53.13882183 7.5 53.125 C6.79746094 53.12886719 6.09492188 53.13273437 5.37109375 53.13671875 C0.12661378 53.12661378 0.12661378 53.12661378 -1 52 C-1.09846461 50.44530745 -1.12798613 48.886176 -1.12939453 47.32836914 C-1.13254669 46.33386246 -1.13569885 45.33935577 -1.13894653 44.31471252 C-1.1369223 43.23245895 -1.13489807 42.15020538 -1.1328125 41.03515625 C-1.13376923 39.9315123 -1.13472595 38.82786835 -1.13571167 37.69078064 C-1.13639372 35.35122623 -1.1345377 33.01166994 -1.13037109 30.67211914 C-1.12502827 27.08149986 -1.13031266 23.49100596 -1.13671875 19.90039062 C-1.13605787 17.63281222 -1.13477651 15.3652339 -1.1328125 13.09765625 C-1.13483673 12.01742691 -1.13686096 10.93719757 -1.13894653 9.82423401 C-1.13579437 8.82657516 -1.13264221 7.82891632 -1.12939453 6.80102539 C-1.12859894 5.92023819 -1.12780334 5.03945099 -1.12698364 4.13197327 C-1 2 -1 2 0 0 Z " fill="#2A6094" transform="translate(319,193)"/>
<path d="M0 0 C62.37 0.495 62.37 0.495 126 1 C126.495 3.475 126.495 3.475 127 6 C110.60618387 6.02333758 94.21237311 6.04098341 77.81854439 6.05181217 C70.20698619 6.0569733 62.5954383 6.06401252 54.98388672 6.07543945 C48.35136752 6.08539187 41.71885579 6.09185476 35.08632934 6.09408849 C31.57292563 6.09539465 28.05954327 6.09847452 24.54614639 6.10573006 C20.62857913 6.11375498 16.71103296 6.11399078 12.79345703 6.11352539 C11.62245453 6.11712067 10.45145203 6.12071594 9.2449646 6.12442017 C7.65056549 6.12235817 7.65056549 6.12235817 6.0239563 6.12025452 C4.63297069 6.12163721 4.63297069 6.12163721 3.21388435 6.12304783 C1 6 1 6 -1 5 C-0.67 3.35 -0.34 1.7 0 0 Z " fill="#36689A" transform="translate(236,322)"/>
<path d="M0 0 C9 0 9 0 11.5 1.875 C14.68520743 6.38737719 14.50091695 10.60028509 14 16 C12.83567931 18.48050929 11.90574048 20.09425952 10 22 C6.7 22 3.4 22 0 22 C0 14.74 0 7.48 0 0 Z " fill="#FAFBFC" transform="translate(246,271)"/>
<path d="M0 0 C0.33 0.99 0.66 1.98 1 3 C0.33613281 3.38671875 -0.32773438 3.7734375 -1.01171875 4.171875 C-2.33623047 4.95304688 -2.33623047 4.95304688 -3.6875 5.75 C-4.55761719 6.26046875 -5.42773438 6.7709375 -6.32421875 7.296875 C-11.41254136 10.53557377 -14.66710513 13.56934963 -17.8125 18.75 C-18.71935547 20.22726562 -18.71935547 20.22726562 -19.64453125 21.734375 C-20.09183594 22.48203125 -20.53914062 23.2296875 -21 24 C-23 22 -23 22 -23.30078125 19.64453125 C-22.62259884 13.68181057 -17.6146225 9.39120113 -13.26171875 5.640625 C-5.19510813 -0.51575983 -5.19510813 -0.51575983 0 0 Z " fill="#2B5B89" transform="translate(174,245)"/>
<path d="M0 0 C1.31419922 -0.01224609 2.62839844 -0.02449219 3.98242188 -0.03710938 C5.23474609 -0.03904297 6.48707031 -0.04097656 7.77734375 -0.04296875 C8.93355225 -0.04707764 10.08976074 -0.05118652 11.28100586 -0.05541992 C14.0625 0.1875 14.0625 0.1875 16.0625 2.1875 C6.4925 2.5175 -3.0775 2.8475 -12.9375 3.1875 C-13.2675 19.0275 -13.5975 34.8675 -13.9375 51.1875 C-14.2675 51.1875 -14.5975 51.1875 -14.9375 51.1875 C-14.96276787 44.08505001 -14.98033201 36.98261152 -14.99243164 29.88012695 C-14.99747349 27.46182828 -15.00430678 25.04353267 -15.01293945 22.62524414 C-15.02501157 19.15770717 -15.03072963 15.69021034 -15.03515625 12.22265625 C-15.04031754 11.13412857 -15.04547882 10.04560089 -15.05079651 8.92408752 C-15.05087204 7.92312546 -15.05094757 6.92216339 -15.05102539 5.89086914 C-15.053246 5.00484512 -15.05546661 4.11882111 -15.05775452 3.20594788 C-14.72324054 -2.40880189 -4.16139979 0.00203491 0 0 Z " fill="#36628E" transform="translate(244.9375,255.8125)"/>
<path d="M0 0 C1.81242052 -0.02687279 3.62495233 -0.04633715 5.4375 -0.0625 C6.44683594 -0.07410156 7.45617187 -0.08570313 8.49609375 -0.09765625 C11 0 11 0 12 1 C12.1875 3.4375 12.1875 3.4375 12 6 C10 8 10 8 7.6171875 8.1953125 C6.71226562 8.17210937 5.80734375 8.14890625 4.875 8.125 C3.50988281 8.09792969 3.50988281 8.09792969 2.1171875 8.0703125 C1.41851562 8.04710937 0.71984375 8.02390625 0 8 C0 5.36 0 2.72 0 0 Z " fill="#FAFBFB" transform="translate(342,271)"/>
<path d="M0 0 C1.4540625 0.0309375 1.4540625 0.0309375 2.9375 0.0625 C4.73980168 3.89239106 5.13372241 6.84371808 4.9375 11.0625 C2.6275 11.3925 0.3175 11.7225 -2.0625 12.0625 C-2.0625 11.4025 -2.0625 10.7425 -2.0625 10.0625 C-0.7425 10.0625 0.5775 10.0625 1.9375 10.0625 C1.133125 9.753125 0.32875 9.44375 -0.5 9.125 C-3.0625 8.0625 -3.0625 8.0625 -4.0625 7.0625 C-4.1875 4.0625 -4.1875 4.0625 -4.0625 1.0625 C-3.0625 0.0625 -3.0625 0.0625 0 0 Z " fill="#D9DFE5" transform="translate(208.0625,272.9375)"/>
<path d="M0 0 C0.66 0 1.32 0 2 0 C3.29243536 4.1196377 4.26252625 7.66831683 4 12 C2.02 12.66 0.04 13.32 -2 14 C-3.5625 12.3125 -3.5625 12.3125 -5 10 C-4.6875 7.25 -4.6875 7.25 -4 5 C-2.68 4.67 -1.36 4.34 0 4 C0 2.68 0 1.36 0 0 Z " fill="#DAE1E7" transform="translate(184,274)"/>
<path d="M0 0 C2.5625 0.1875 2.5625 0.1875 4.5625 2.1875 C4.75 5.25 4.75 5.25 4.5625 8.1875 C3.5625 9.1875 3.5625 9.1875 0.625 9.4375 C-0.385625 9.355 -1.39625 9.2725 -2.4375 9.1875 C-4.4375 6.1875 -4.4375 6.1875 -4.125 3.5625 C-3.16420807 0.24340062 -3.16420807 0.24340062 0 0 Z " fill="#E1E7EB" transform="translate(173.4375,279.8125)"/>
<path d="M0 0 C1.32 0.33 2.64 0.66 4 1 C3.01 2.485 3.01 2.485 2 4 C1.6745031 6.03665226 1.6745031 6.03665226 1.68115234 8.2878418 C1.66128265 9.14850754 1.64141296 10.00917328 1.62094116 10.8959198 C1.60361435 12.28355278 1.60361435 12.28355278 1.5859375 13.69921875 C1.56657135 14.64940384 1.5472052 15.59958893 1.5272522 16.5785675 C1.46745088 19.6147869 1.42106871 22.65104419 1.375 25.6875 C1.33682074 27.74545928 1.29776904 29.80340258 1.2578125 31.86132812 C1.16174881 36.9074223 1.07771969 41.95359129 1 47 C0.67 47 0.34 47 0 47 C0 31.49 0 15.98 0 0 Z " fill="#225185" transform="translate(281,257)"/>
<path d="M0 0 C-0.66 0.66 -1.32 1.32 -2 2 C-2 2.99 -2 3.98 -2 5 C-5.96 5 -9.92 5 -14 5 C-14.33 4.34 -14.66 3.68 -15 3 C-10.25420243 0.26203987 -5.40112241 -0.15885654 0 0 Z " fill="#386897" transform="translate(194,318)"/>
<path d="M0 0 C2 5.75 2 5.75 2 8 C1.01 7.67 0.02 7.34 -1 7 C-1 5.35 -1 3.7 -1 2 C-1.99 2 -2.98 2 -4 2 C-4 4.31 -4 6.62 -4 9 C-4.99 8.67 -5.98 8.34 -7 8 C-7 5.69 -7 3.38 -7 1 C-4.53721199 -0.231394 -2.7204945 -0.07159196 0 0 Z " fill="#DBE1E7" transform="translate(201,275)"/>
<path d="M0 0 C1.2065625 0.0309375 1.2065625 0.0309375 2.4375 0.0625 C2.7675 0.7225 3.0975 1.3825 3.4375 2.0625 C1.7875 2.0625 0.1375 2.0625 -1.5625 2.0625 C-1.5625 3.7125 -1.5625 5.3625 -1.5625 7.0625 C0.0875 6.7325 1.7375 6.4025 3.4375 6.0625 C3.1075 7.0525 2.7775 8.0425 2.4375 9.0625 C0.0625 9.25 0.0625 9.25 -2.5625 9.0625 C-4.5625 6.0625 -4.5625 6.0625 -4.25 3.4375 C-3.27807854 0.07995314 -3.27807854 0.07995314 0 0 Z " fill="#DAE0E5" transform="translate(164.5625,281.9375)"/>
<path d="M0 0 C2.13262124 3.19893186 2.59021548 5.22998243 3 9 C2.67 9.33 2.34 9.66 2 10 C1.76298761 12.85877909 1.57780818 15.69883297 1.4375 18.5625 C1.39431641 19.36880859 1.35113281 20.17511719 1.30664062 21.00585938 C1.20024738 23.00368805 1.09959112 25.0018207 1 27 C0.67 27 0.34 27 0 27 C0 18.09 0 9.18 0 0 Z " fill="#E3E9ED" transform="translate(119,217)"/>
<path d="M0 0 C1.4540625 0.0309375 1.4540625 0.0309375 2.9375 0.0625 C2.6075 1.3825 2.2775 2.7025 1.9375 4.0625 C0.6175 3.4025 -0.7025 2.7425 -2.0625 2.0625 C-1.71463292 4.03786745 -1.71463292 4.03786745 -1.0625 6.0625 C-0.4025 6.3925 0.2575 6.7225 0.9375 7.0625 C0.9375 7.7225 0.9375 8.3825 0.9375 9.0625 C-2.9375 8.1875 -2.9375 8.1875 -4.0625 7.0625 C-4.1875 4.0625 -4.1875 4.0625 -4.0625 1.0625 C-3.0625 0.0625 -3.0625 0.0625 0 0 Z " fill="#EDF0F2" transform="translate(208.0625,272.9375)"/>
<path d="M0 0 C0.99 0 1.98 0 3 0 C3.66 3.96 4.32 7.92 5 12 C4.01 12 3.02 12 2 12 C1.34 8.04 0.68 4.08 0 0 Z " fill="#CFD9E2" transform="translate(188,273)"/>
<path d="M0 0 C1.65 0 3.3 0 5 0 C5 0.66 5 1.32 5 2 C5.66 2.33 6.32 2.66 7 3 C6.67 4.32 6.34 5.64 6 7 C5.34 6.67 4.68 6.34 4 6 C4.33 5.34 4.66 4.68 5 4 C3.35 4.33 1.7 4.66 0 5 C0 3.35 0 1.7 0 0 Z " fill="#3B6390" transform="translate(163,284)"/>
<path d="M0 0 C0.66 0 1.32 0 2 0 C3.29243536 4.1196377 4.26252625 7.66831683 4 12 C3.34 11.67 2.68 11.34 2 11 C1.375 8.4375 1.375 8.4375 1 6 C0.01 5.67 -0.98 5.34 -2 5 C-1.34 3.35 -0.68 1.7 0 0 Z " fill="#ECF0F2" transform="translate(184,274)"/>
<path d="M0 0 C1.98120645 2.97180967 2.65962579 4.51116436 3 8 C2.0625 10.3125 2.0625 10.3125 1 12 C1 11.34 1 10.68 1 10 C0.34 10 -0.32 10 -1 10 C-2.15837626 5.94568308 -1.83691257 3.78187881 0 0 Z " fill="#336292" transform="translate(223,264)"/>
<path d="M0 0 C2.375 -0.125 2.375 -0.125 5 0 C7 2 7 2 7.125 5.125 C7.08375 6.07375 7.0425 7.0225 7 8 C5 6 5 6 4 3 C2.35 3.33 0.7 3.66 -1 4 C-0.67 2.68 -0.34 1.36 0 0 Z " fill="#F0F2F4" transform="translate(171,280)"/>
<path d="M0 0 C0.66 1.32 1.32 2.64 2 4 C0.25 5.5625 0.25 5.5625 -2 7 C-4.25 6.6875 -4.25 6.6875 -6 6 C-4 4 -2 2 0 0 Z " fill="#22507F" transform="translate(161,251)"/>
<path d="M0 0 C1.98 0.495 1.98 0.495 4 1 C4 2.32 4 3.64 4 5 C2.35 4.67 0.7 4.34 -1 4 C-0.67 2.68 -0.34 1.36 0 0 Z " fill="#3B6591" transform="translate(201,300)"/>
<path d="M0 0 C1.98 0.495 1.98 0.495 4 1 C3.67 2.32 3.34 3.64 3 5 C1.68 4.67 0.36 4.34 -1 4 C-0.67 2.68 -0.34 1.36 0 0 Z " fill="#295786" transform="translate(195,302)"/>
<path d="M0 0 C3.63 0 7.26 0 11 0 C11 1.32 11 2.64 11 4 C9.68 3.67 8.36 3.34 7 3 C7.33 2.67 7.66 2.34 8 2 C5.36 1.67 2.72 1.34 0 1 C0 0.67 0 0.34 0 0 Z " fill="#225688" transform="translate(352,324)"/>
<path d="M0 0 C2.475 0.495 2.475 0.495 5 1 C4.34 2.32 3.68 3.64 3 5 C2.01 4.67 1.02 4.34 0 4 C0 2.68 0 1.36 0 0 Z " fill="#2F5A89" transform="translate(169,256)"/>
<path d="M0 0 C0.99 1.485 0.99 1.485 2 3 C4.58380177 3.25030977 4.58380177 3.25030977 7 3 C6.67 3.99 6.34 4.98 6 6 C4.33388095 6.042721 2.66617115 6.04063832 1 6 C0 5 0 5 -0.0625 2.4375 C-0.041875 1.633125 -0.02125 0.82875 0 0 Z " fill="#F1F3F5" transform="translate(161,285)"/>
<path d="M0 0 C1.32 0.33 2.64 0.66 4 1 C4 2.32 4 3.64 4 5 C2.68 5 1.36 5 0 5 C0 3.35 0 1.7 0 0 Z " fill="#2D578A" transform="translate(172,282)"/>
<path d="M0 0 C0.33 0 0.66 0 1 0 C1.66 2.31 2.32 4.62 3 7 C1.68 7.99 0.36 8.98 -1 10 C-1.33 9.34 -1.66 8.68 -2 8 C-1.34 8 -0.68 8 0 8 C-0.2784375 6.8553125 -0.2784375 6.8553125 -0.5625 5.6875 C-1 3 -1 3 0 0 Z " fill="#4C739B" transform="translate(203,275)"/>
<path d="M0 0 C1.32 0.33 2.64 0.66 4 1 C4.33 3.31 4.66 5.62 5 8 C4.01 7.67 3.02 7.34 2 7 C0.8125 3.4375 0.8125 3.4375 0 0 Z " fill="#E8EDF0" transform="translate(198,275)"/>
<path d="M0 0 C1.74627478 2.61941217 2.38722388 4.03824877 3 7 C1.35 7 -0.3 7 -2 7 C-1.34 4.69 -0.68 2.38 0 0 Z " fill="#396590" transform="translate(150,264)"/>
<path d="M0 0 C0.99 0 1.98 0 3 0 C3.33 1.32 3.66 2.64 4 4 C2.68 4.33 1.36 4.66 0 5 C0 3.35 0 1.7 0 0 Z " fill="#315E8C" transform="translate(182,280)"/>
<path d="M0 0 C1.32 0.33 2.64 0.66 4 1 C3.67 2.32 3.34 3.64 3 5 C2.01 4.67 1.02 4.34 0 4 C0 2.68 0 1.36 0 0 Z " fill="#3E658F" transform="translate(206,275)"/>
</svg>
